<svg width="113.4mm" height="92.3mm" viewBox="0 0 113.4 92.3" xmlns="http://www.w3.org/2000/svg"><defs><linearGradient id="a" x1="0" x2="113.24" y1="0" y2="91.546" gradientUnits="userSpaceOnUse"><stop stop-color="#eee" offset="0"/><stop stop-color="#dcdcdc" offset="1"/></linearGradient><filter id="b" x="-.015" y="-.018" width="1.03" height="1.037" color-interpolation-filters="sRGB"><feFlood flood-color="#000" result="flood"/><feComposite in="flood" in2="SourceGraphic" operator="in" result="composite1"/><feGaussianBlur in="composite1" result="blur" stdDeviation=".7"/><feOffset result="offset"/><feComposite in="SourceGraphic" in2="offset" result="composite2"/></filter></defs><path transform="translate(1.633 1.633) scale(.97183)" fill="url(#a)" fill-rule="evenodd" filter="url(#b)" style="paint-order:markers stroke fill" d="M0 0h113.24v91.546H0z"/><text x="50.497" y="16.14" font-family="sans-serif" font-size="6.35" letter-spacing="0" stroke-width=".265" word-spacing="0" style="line-height:1.25" xml:space="preserve"><tspan x="50.497" y="16.14">About me</tspan></text><path d="M45.306 16.178c-1.365-.315-2.635-.591-2.02-1.754 1.873-3.537.496-5.428-1.481-5.428-2.017 0-3.36 1.964-1.482 5.428.634 1.17-.684 1.446-2.02 1.754-1.22.282-1.265.887-1.261 1.946l.001.397h9.522l.001-.384c.005-1.067-.036-1.676-1.26-1.959z"/><text x="7.101" y="28.702" font-family="sans-serif" font-size="4.233" letter-spacing="0" stroke-width=".265" word-spacing="0" style="line-height:1.25" xml:space="preserve"><tspan x="7.101" y="28.702">Currently a student, I have been programming </tspan><tspan x="7.101" y="33.994">for almost 6 years, mainly in open source. </tspan></text></svg>