<svg width="512px" height="512px" enable-background="new 0 0 512 512" version="1.1" viewBox="0 0 512 512" xml:space="preserve" xmlns="http://www.w3.org/2000/svg"><g id="_x32_07-mastodon"><path d="m255.82 46.008c-53.476 0.035001-106.88 6.7613-135.9 20.072 0 0-59.709 26.713-59.709 117.82 0 108.45-6.1896 243.15 98.982 270.99 37.961 10.027 70.583 12.184 96.828 10.684 47.617-2.624 74.33-16.967 74.33-16.967l-1.5918-34.588s-34.027 10.687-72.27 9.4668c-37.87-1.313-77.801-4.1232-83.988-50.615-0.563-4.124-0.84375-8.4363-0.84375-13.029 80.237 19.589 148.66 8.5303 167.5 6.2793 52.586-6.28 98.422-38.712 104.23-68.332 9.189-46.68 8.4375-113.89 8.4375-113.89l0.01172 0.00195c0-91.111-59.709-117.82-59.709-117.82-29.292-13.451-82.837-20.107-136.31-20.072zm-62.113 70.939c19.634-0.4952 39.494 7.6154 51.445 25.99l10.873 18.279 10.873-18.279c22.591-34.777 73.208-32.619 97.297-5.7168 22.216 25.59 17.246 48.427 17.246 162.78h-43.68v-105.79c0-46.586-59.992-48.368-59.992 6.4668v58.584h-43.396v-58.584c0-54.835-59.99-53.053-59.99-6.4668v105.79h-43.773c0-114.45-4.8749-137.38 17.246-162.78 11.38-12.698 28.528-19.836 45.852-20.273z"/></g></svg>
