<?xml version="1.0" encoding="UTF-8"?>
<!-- Created with Inkscape (http://www.inkscape.org/) -->
<svg id="svg979" width="381" height="348" version="1.1" viewBox="0 0 100.81 92.075" xmlns="http://www.w3.org/2000/svg" xmlns:cc="http://creativecommons.org/ns#" xmlns:dc="http://purl.org/dc/elements/1.1/" xmlns:rdf="http://www.w3.org/1999/02/22-rdf-syntax-ns#" xmlns:xlink="http://www.w3.org/1999/xlink">
 <title id="title867">Gitea - Ad5001 Github</title>
 <defs id="defs976">
  <linearGradient id="linearGradient27871" x1="5e-7" x2="113.24" y1="8.1294e-6" y2="91.546" gradientTransform="matrix(.86449 0 0 .9711 1.6327 1.6327)" gradientUnits="userSpaceOnUse">
   <stop id="stop27865" stop-color="#032b67" stop-opacity=".89866" offset="0"/>
   <stop id="stop27867" stop-color="#040d21" offset="1"/>
  </linearGradient>
  <filter id="filter971" x="-.01471" y="-.016198" width="1.0294" height="1.0324" color-interpolation-filters="sRGB">
   <feFlood id="feFlood961" flood-color="rgb(0,0,0)" result="flood"/>
   <feComposite id="feComposite963" in="flood" in2="SourceGraphic" operator="in" result="composite1"/>
   <feGaussianBlur id="feGaussianBlur965" in="composite1" result="blur" stdDeviation="0.6"/>
   <feOffset id="feOffset967" dx="0" dy="0" result="offset"/>
   <feComposite id="feComposite969" in="SourceGraphic" in2="offset" result="composite2"/>
  </filter>
 </defs>
 <g id="layer2">
  <rect id="rect26993" x="1.6327" y="1.6327" width="97.896" height="88.9" fill="url(#linearGradient27871)" fill-rule="evenodd" filter="url(#filter971)" style="paint-order:markers stroke fill"/>
  <text id="text22781" x="49.657001" y="16.0655" fill="#ffffff" font-family="sans-serif" font-size="6.35px" letter-spacing="0px" stroke-width=".26458" word-spacing="0px" style="line-height:1.25" xml:space="preserve"><tspan id="tspan22779" x="49.657001" y="16.0655" fill="#ffffff" font-size="6.35px" stroke-width=".26458">Gitea</tspan></text>
  <text id="text29203" x="5.4927502" y="28.701998" fill="#ffffff" font-family="sans-serif" font-size="4.2333px" letter-spacing="0px" stroke-width=".26458" word-spacing="0px" style="line-height:1.25" xml:space="preserve"><tspan id="tspan3838" x="5.4927502" y="28.701998">The majority of the software I create is </tspan><tspan id="tspan23064" x="5.4927502" y="33.99366">available on Github. </tspan><tspan id="tspan19504" x="5.4927502" y="39.285324"/><tspan id="tspan6722" x="5.4927502" y="44.576984">However, most of the developement, as well</tspan><tspan id="tspan3840" x="5.4927502" y="49.868645">as  accepted contributions, are done on my</tspan><tspan id="tspan18088" x="5.4927502" y="55.160309">self-hosted Gitea instance, at git.ad5001.eu.</tspan><tspan id="tspan33732" x="5.4927502" y="60.451973"/><tspan id="tspan15652" x="5.4927502" y="65.743637">CI and CD are done via Drone CI ci.ad5001.eu.</tspan></text>
  <path id="rect47994" d="m16.404 71.967h67.469v11.906h-67.469z" fill="#fff" fill-rule="evenodd" stroke-width="0" style="paint-order:markers stroke fill"/>
  <path id="path2-2" d="m24.871 77.788v2.6458h-5.5562v-5.0271h3.175v0.52917h-2.6458v3.9688h4.4979v-2.1167zm0.79375-3.175h-2.9072l1.0676 1.0583-1.846 1.8706 0.74824 0.74824 1.846-1.8706 1.0914 1.1038z" stroke-width=".26458"/>
  <g id="text50436" transform="translate(-6.0521 -.011109)" stroke-width=".26458" aria-label="MY GITEA PROFILE">
   <path id="path4831" d="m35.156 79.83h0.43339v-2.8837l1.4168 2.6614 1.4168-2.6614v2.8837h0.43339v-3.8171h-0.43339l-1.4168 2.6614-1.4168-2.6614h-0.43339z"/>
   <path id="path4833" d="m41.018 79.83h0.45561v-1.5558l1.5335-2.2614h-0.52229l-1.239 1.8502-1.2279-1.8502h-0.53896l1.5391 2.2614z"/>
   <path id="path4835" d="m46.919 78.23h1.0946v0.91122c-0.28337 0.21669-0.69453 0.3556-1.0501 0.3556-0.82232 0-1.5169-0.72231-1.5169-1.578 0-0.85011 0.69453-1.5724 1.5169-1.5724 0.41672 0 0.91122 0.18891 1.189 0.48339l0.29448-0.30004c-0.3556-0.36116-0.95568-0.58341-1.4835-0.58341-1.0557 0-1.9558 0.90011-1.9558 1.9725s0.90011 1.978 1.9558 1.978c0.52784 0 1.1279-0.22781 1.4835-0.58341v-1.4946h-1.528z"/>
   <path id="path4837" d="m49.297 79.83h0.43339v-3.8171h-0.43339z"/>
   <path id="path4839" d="m51.703 79.83h0.43339v-3.406h1.2835v-0.41116h-3.0004v0.41116h1.2835z"/>
   <path id="path4841" d="m56.848 76.424v-0.41116h-2.7392v3.8171h2.7392v-0.41116h-2.3003v-1.3279h2.0725v-0.41116h-2.0725v-1.2557z"/>
   <path id="path4843" d="m60.698 79.83h0.47228l-1.6835-3.8171h-0.47228l-1.6835 3.8171h0.47228l0.38338-0.86678h2.128zm-2.3336-1.2779 0.889-2.0058 0.88344 2.0058z"/>
   <path id="path4845" d="m63.399 79.83h0.43339v-1.3724h1.1168c0.78899 0 1.4057-0.50562 1.4057-1.2224 0-0.71676-0.61674-1.2224-1.4057-1.2224h-1.5502zm0.43339-1.7836v-1.6224h1.039c0.6223 0 1.0446 0.30004 1.0446 0.81121s-0.42228 0.81121-1.0446 0.81121z"/>
   <path id="path4847" d="m69.933 77.236c0-0.71676-0.61674-1.2224-1.4057-1.2224h-1.5502v3.8171h0.43339v-1.3724h1.0112l0.96679 1.3724h0.49451l-0.98901-1.4113c0.60563-0.12779 1.039-0.58341 1.039-1.1835zm-2.5225-0.81121h1.039c0.6223 0 1.0446 0.30004 1.0446 0.81121s-0.42228 0.81121-1.0446 0.81121h-1.039z"/>
   <path id="path4849" d="m72.394 79.897c1.0612 0 1.9502-0.90567 1.9502-1.978s-0.889-1.9725-1.9502-1.9725c-1.0557 0-1.9558 0.90011-1.9558 1.9725s0.90011 1.978 1.9558 1.978zm0-0.40005c-0.82232 0-1.5169-0.72231-1.5169-1.578 0-0.85011 0.69453-1.5724 1.5169-1.5724s1.5113 0.72231 1.5113 1.5724c0 0.85566-0.68898 1.578-1.5113 1.578z"/>
   <path id="path4851" d="m77.812 76.424v-0.41116h-2.7392v3.8171h0.43894v-1.7391h2.0725v-0.41116h-2.0725v-1.2557z"/>
   <path id="path4853" d="m78.456 79.83h0.43339v-3.8171h-0.43339z"/>
   <path id="path4855" d="m80.14 79.419v-3.406h-0.43339v3.8171h2.517v-0.41116z"/>
   <path id="path4857" d="m85.59 76.424v-0.41116h-2.7392v3.8171h2.7392v-0.41116h-2.3003v-1.3279h2.0725v-0.41116h-2.0725v-1.2557z"/>
  </g>
  <path id="path2-3" d="m45.594 13.334-4.1589-4.1585c-0.11985-0.11986-0.27702-0.17978-0.43378-0.17978-0.15716 0-0.31393 0.059928-0.43378 0.17978l-0.8636 0.8636 1.0954 1.0954c0.2548-0.08573 0.5465-0.02818 0.7497 0.17462 0.2036 0.20439 0.26114 0.49848 0.17264 0.75406l1.0557 1.0557c0.25559-0.08811 0.55046-0.03096 0.75446 0.17343 0.28496 0.28496 0.28496 0.74652 0 1.0319-0.28535 0.28535-0.74732 0.28535-1.0327 0-0.21431-0.21471-0.26749-0.52943-0.15875-0.79375l-0.98465-0.98465v2.5912c0.06945 0.03453 0.13494 0.08017 0.19328 0.13811 0.28456 0.28456 0.28456 0.74652 0 1.0323-0.28535 0.28496-0.74771 0.28496-1.0323 0-0.28535-0.28575-0.28535-0.74771 0-1.0323 0.07024-0.07064 0.152-0.12382 0.23892-0.15954v-2.615c-0.08691-0.03532-0.16867-0.0885-0.23892-0.15915-0.2159-0.2159-0.26829-0.533-0.15716-0.79812l-1.0799-1.0799-2.8515 2.8515c-0.11985 0.11986-0.17978 0.27662-0.17978 0.43378 0 0.15677 0.05993 0.31393 0.17978 0.43378l4.1589 4.1585c0.11985 0.11986 0.27662 0.17939 0.43339 0.17939 0.15716 0 0.31393-0.05953 0.43378-0.17939l4.1398-4.1386c0.11985-0.12025 0.17939-0.27742 0.17939-0.43418 0-0.15716-0.05953-0.31393-0.17939-0.43378" fill="#fff" stroke-width=".39687"/>
 </g>
 <metadata id="metadata865">
  <rdf:RDF>
   <cc:Work rdf:about="">
    <dc:title>Gitea - Ad5001 Github</dc:title>
   </cc:Work>
  </rdf:RDF>
 </metadata>
</svg>
