<?xml version="1.0" encoding="UTF-8" standalone="no"?>
<!-- Created with Inkscape (http://www.inkscape.org/) -->

<svg
   width="113.4mm"
   height="92.300003mm"
   viewBox="0 0 113.4 92.300003"
   version="1.1"
   id="svg979"
   inkscape:version="1.1.1 (3bf5ae0d25, 2021-09-20)"
   sodipodi:docname="source.svg"
   xmlns:inkscape="http://www.inkscape.org/namespaces/inkscape"
   xmlns:sodipodi="http://sodipodi.sourceforge.net/DTD/sodipodi-0.dtd"
   xmlns:xlink="http://www.w3.org/1999/xlink"
   xmlns="http://www.w3.org/2000/svg"
   xmlns:svg="http://www.w3.org/2000/svg"
   xmlns:rdf="http://www.w3.org/1999/02/22-rdf-syntax-ns#"
   xmlns:cc="http://creativecommons.org/ns#"
   xmlns:dc="http://purl.org/dc/elements/1.1/">
  <title
     id="title867">Gitea - Ad5001 Github</title>
  <sodipodi:namedview
     id="namedview981"
     pagecolor="#ffffff"
     bordercolor="#666666"
     borderopacity="1.0"
     inkscape:pageshadow="2"
     inkscape:pageopacity="0.0"
     inkscape:pagecheckerboard="0"
     inkscape:document-units="mm"
     showgrid="false"
     inkscape:zoom="1.866066"
     inkscape:cx="219.44561"
     inkscape:cy="176.84262"
     inkscape:window-width="1920"
     inkscape:window-height="1009"
     inkscape:window-x="0"
     inkscape:window-y="0"
     inkscape:window-maximized="1"
     inkscape:current-layer="layer2"
     width="114mm" />
  <defs
     id="defs976">
    <linearGradient
       inkscape:collect="always"
       id="linearGradient27869">
      <stop
         style="stop-color:#032b67;stop-opacity:0.89865565"
         offset="0"
         id="stop27865" />
      <stop
         style="stop-color:#040d21;stop-opacity:1"
         offset="1"
         id="stop27867" />
    </linearGradient>
    <linearGradient
       inkscape:collect="always"
       xlink:href="#linearGradient27869"
       id="linearGradient27871"
       x1="5e-07"
       y1="8.1293947e-06"
       x2="113.24167"
       y2="91.545837"
       gradientUnits="userSpaceOnUse" />
    <filter
       style="color-interpolation-filters:sRGB;"
       inkscape:label="Drop Shadow"
       id="filter1133"
       x="-0.012716168"
       y="-0.015729827"
       width="1.0254323"
       height="1.0314597">
      <feFlood
         flood-opacity="1"
         flood-color="rgb(0,0,0)"
         result="flood"
         id="feFlood1123" />
      <feComposite
         in="flood"
         in2="SourceGraphic"
         operator="in"
         result="composite1"
         id="feComposite1125" />
      <feGaussianBlur
         in="composite1"
         stdDeviation="0.6"
         result="blur"
         id="feGaussianBlur1127" />
      <feOffset
         dx="0"
         dy="0"
         result="offset"
         id="feOffset1129" />
      <feComposite
         in="SourceGraphic"
         in2="offset"
         operator="over"
         result="composite2"
         id="feComposite1131" />
    </filter>
  </defs>
  <g
     inkscape:groupmode="layer"
     id="layer2"
     inkscape:label="Calque 2"
     style="display:inline">
    <rect
       style="fill:url(#linearGradient27871);fill-opacity:1;fill-rule:evenodd;stroke:none;stroke-width:0;stroke-linejoin:round;stroke-miterlimit:4;stroke-dasharray:none;stroke-opacity:1;paint-order:markers stroke fill;filter:url(#filter1133)"
       id="rect26993"
       width="113.24167"
       height="91.54583"
       x="5e-07"
       y="8.1293947e-06"
       transform="matrix(0.97183081,0,0,0.97183081,1.6326752,1.6326678)" />
    <text
       xml:space="preserve"
       style="font-style:normal;font-weight:normal;font-size:6.35px;line-height:1.25;font-family:sans-serif;letter-spacing:0px;word-spacing:0px;fill:#ffffff;fill-opacity:1;stroke:none;stroke-width:0.264583"
       x="56.800751"
       y="16.0655"
       id="text22781"><tspan
         sodipodi:role="line"
         id="tspan22779"
         style="font-size:6.35px;fill:#ffffff;fill-opacity:1;stroke-width:0.264583"
         x="56.800751"
         y="16.0655">Gitea</tspan></text>
    <text
       xml:space="preserve"
       style="font-style:normal;font-weight:normal;font-size:4.23333px;line-height:1.25;font-family:sans-serif;letter-spacing:0px;word-spacing:0px;fill:#000000;fill-opacity:1;stroke:none;stroke-width:0.264583"
       x="7.1014166"
       y="28.701998"
       id="text29203"><tspan
         sodipodi:role="line"
         style="font-size:4.23333px;fill:#ffffff;fill-opacity:1;stroke-width:0.264583"
         x="7.1014166"
         y="28.701998"
         id="tspan3838">The majority of the software I create is available on</tspan><tspan
         sodipodi:role="line"
         style="font-size:4.23333px;fill:#ffffff;fill-opacity:1;stroke-width:0.264583"
         x="7.1014166"
         y="33.99366"
         id="tspan23064">Github. </tspan><tspan
         sodipodi:role="line"
         style="font-size:4.23333px;fill:#ffffff;fill-opacity:1;stroke-width:0.264583"
         x="7.1014166"
         y="39.285324"
         id="tspan19504" /><tspan
         sodipodi:role="line"
         style="font-size:4.23333px;fill:#ffffff;fill-opacity:1;stroke-width:0.264583"
         x="7.1014166"
         y="44.576984"
         id="tspan6722">However, most of the developement, as well as </tspan><tspan
         sodipodi:role="line"
         style="font-size:4.23333px;fill:#ffffff;fill-opacity:1;stroke-width:0.264583"
         x="7.1014166"
         y="49.868645"
         id="tspan3840">accepted contributions, are done on my self-hosted</tspan><tspan
         sodipodi:role="line"
         style="font-size:4.23333px;fill:#ffffff;fill-opacity:1;stroke-width:0.264583"
         x="7.1014166"
         y="55.160309"
         id="tspan18088">Gitea instance, available at git.ad5001.eu.</tspan><tspan
         sodipodi:role="line"
         style="font-size:4.23333px;fill:#ffffff;fill-opacity:1;stroke-width:0.264583"
         x="7.1014166"
         y="60.451973"
         id="tspan33732" /><tspan
         sodipodi:role="line"
         style="font-size:4.23333px;fill:#ffffff;fill-opacity:1;stroke-width:0.264583"
         x="7.1014166"
         y="65.743637"
         id="tspan15652">CI and CD are done via Drone CI at ci.ad5001.eu.</tspan></text>
    <path
       id="rect47994"
       style="fill:#ffffff;fill-opacity:1;fill-rule:evenodd;stroke-width:0;stroke-linejoin:round;paint-order:markers stroke fill"
       d="m 24.60625,71.966667 h 63.5 v 11.90625 h -63.5 z" />
    <path
       d="m 33.072916,77.7875 v 2.645834 h -5.55625 V 75.40625 h 3.175 v 0.529167 h -2.645833 v 3.96875 h 4.497916 V 77.7875 Z m 0.79375,-3.175 h -2.907242 l 1.067594,1.058334 -1.845998,1.870604 0.748242,0.748241 1.845998,-1.870604 1.091406,1.103842 z"
       id="path2-2"
       style="stroke-width:0.264583" />
    <text
       xml:space="preserve"
       style="font-style:normal;font-weight:normal;font-size:5.55625px;line-height:1.25;font-family:sans-serif;letter-spacing:0px;word-spacing:0px;fill:#000000;fill-opacity:1;stroke:none;stroke-width:0.264583"
       x="36.750626"
       y="79.830345"
       id="text50436"><tspan
         sodipodi:role="line"
         id="tspan50434"
         style="font-size:5.55625px;stroke-width:0.264583"
         x="36.750626"
         y="79.830345">MY GITEA PROFILE</tspan></text>
    <path
       d="M 52.737279,13.334074 48.578427,9.1756177 c -0.11985,-0.1198562 -0.27702,-0.1797844 -0.433785,-0.1797844 -0.157163,0 -0.313927,0.059928 -0.433785,0.1797844 l -0.8636,0.8636003 1.095375,1.095375 c 0.254795,-0.08573 0.546497,-0.02818 0.749697,0.174625 0.203597,0.20439 0.261144,0.498475 0.172641,0.754062 l 1.055687,1.055688 c 0.255588,-0.08811 0.550465,-0.03096 0.754459,0.173434 0.284957,0.284956 0.284957,0.746522 0,1.031875 -0.285352,0.285353 -0.747315,0.285353 -1.032669,0 -0.214312,-0.214709 -0.267493,-0.529431 -0.158749,-0.79375 L 48.499052,12.54588 v 2.591197 c 0.06945,0.03453 0.13494,0.08017 0.193277,0.138113 0.284559,0.284559 0.284559,0.746522 0,1.032271 -0.285352,0.284957 -0.747712,0.284957 -1.032271,0 -0.285354,-0.285749 -0.285354,-0.747712 0,-1.032271 0.07024,-0.07064 0.152003,-0.123825 0.238918,-0.159544 v -2.615009 c -0.08691,-0.03532 -0.168672,-0.0885 -0.238918,-0.159147 -0.215901,-0.2159 -0.268289,-0.533003 -0.157162,-0.798116 l -1.079899,-1.079897 -2.851546,2.851547 c -0.11985,0.119856 -0.179784,0.276622 -0.179784,0.433784 0,0.156766 0.05993,0.313929 0.179784,0.433785 l 4.158854,4.158456 c 0.11985,0.119856 0.276622,0.179388 0.433387,0.179388 0.157163,0 0.313928,-0.05953 0.433785,-0.179388 l 4.139802,-4.138612 c 0.11985,-0.120254 0.179388,-0.277416 0.179388,-0.434182 0,-0.157162 -0.05953,-0.313928 -0.179388,-0.433784"
       id="path2-3"
       style="fill:#ffffff;stroke-width:0.396874" />
  </g>
  <metadata
     id="metadata865">
    <rdf:RDF>
      <cc:Work
         rdf:about="">
        <dc:title>Gitea - Ad5001 Github</dc:title>
      </cc:Work>
    </rdf:RDF>
  </metadata>
</svg>
