<?xml version="1.0" encoding="UTF-8" standalone="no"?>
<!-- Created with Inkscape (http://www.inkscape.org/) -->

<svg
   width="381"
   height="348"
   viewBox="0 0 100.80625 92.075001"
   version="1.1"
   id="svg979"
   inkscape:version="1.1.1 (3bf5ae0d25, 2021-09-20)"
   sodipodi:docname="source.svg"
   xmlns:inkscape="http://www.inkscape.org/namespaces/inkscape"
   xmlns:sodipodi="http://sodipodi.sourceforge.net/DTD/sodipodi-0.dtd"
   xmlns:xlink="http://www.w3.org/1999/xlink"
   xmlns="http://www.w3.org/2000/svg"
   xmlns:svg="http://www.w3.org/2000/svg"
   xmlns:rdf="http://www.w3.org/1999/02/22-rdf-syntax-ns#"
   xmlns:cc="http://creativecommons.org/ns#"
   xmlns:dc="http://purl.org/dc/elements/1.1/">
  <title
     id="title867">Gitea - Ad5001 Github</title>
  <sodipodi:namedview
     id="namedview981"
     pagecolor="#ffffff"
     bordercolor="#666666"
     borderopacity="1.0"
     inkscape:pageshadow="2"
     inkscape:pageopacity="0.0"
     inkscape:pagecheckerboard="0"
     inkscape:document-units="mm"
     showgrid="false"
     inkscape:zoom="1.866066"
     inkscape:cx="219.44561"
     inkscape:cy="176.84262"
     inkscape:window-width="1920"
     inkscape:window-height="1009"
     inkscape:window-x="0"
     inkscape:window-y="0"
     inkscape:window-maximized="1"
     inkscape:current-layer="layer2"
     width="381px"
     units="px" />
  <defs
     id="defs976">
    <linearGradient
       inkscape:collect="always"
       id="linearGradient27869">
      <stop
         style="stop-color:#032b67;stop-opacity:0.89865565"
         offset="0"
         id="stop27865" />
      <stop
         style="stop-color:#040d21;stop-opacity:1"
         offset="1"
         id="stop27867" />
    </linearGradient>
    <linearGradient
       inkscape:collect="always"
       xlink:href="#linearGradient27869"
       id="linearGradient27871"
       x1="5e-07"
       y1="8.1293947e-06"
       x2="113.24167"
       y2="91.545837"
       gradientUnits="userSpaceOnUse"
       gradientTransform="matrix(0.86448597,0,0,0.97109832,1.6326753,1.6326678)" />
    <filter
       style="color-interpolation-filters:sRGB"
       inkscape:label="Drop Shadow"
       id="filter971"
       x="-0.014709513"
       y="-0.016197976"
       width="1.029419"
       height="1.032396">
      <feFlood
         flood-opacity="1"
         flood-color="rgb(0,0,0)"
         result="flood"
         id="feFlood961" />
      <feComposite
         in="flood"
         in2="SourceGraphic"
         operator="in"
         result="composite1"
         id="feComposite963" />
      <feGaussianBlur
         in="composite1"
         stdDeviation="0.6"
         result="blur"
         id="feGaussianBlur965" />
      <feOffset
         dx="0"
         dy="0"
         result="offset"
         id="feOffset967" />
      <feComposite
         in="SourceGraphic"
         in2="offset"
         operator="over"
         result="composite2"
         id="feComposite969" />
    </filter>
  </defs>
  <g
     inkscape:groupmode="layer"
     id="layer2"
     inkscape:label="Calque 2"
     style="display:inline">
    <rect
       style="fill:url(#linearGradient27871);fill-opacity:1;fill-rule:evenodd;stroke:none;stroke-width:0;stroke-linejoin:round;stroke-miterlimit:4;stroke-dasharray:none;stroke-opacity:1;paint-order:markers stroke fill;filter:url(#filter971)"
       id="rect26993"
       width="97.895836"
       height="88.900002"
       x="1.6326756"
       y="1.6326756" />
    <text
       xml:space="preserve"
       style="font-style:normal;font-weight:normal;font-size:6.35px;line-height:1.25;font-family:sans-serif;letter-spacing:0px;word-spacing:0px;fill:#ffffff;fill-opacity:1;stroke:none;stroke-width:0.264583"
       x="49.657001"
       y="16.0655"
       id="text22781"><tspan
         sodipodi:role="line"
         id="tspan22779"
         style="font-size:6.35px;fill:#ffffff;fill-opacity:1;stroke-width:0.264583"
         x="49.657001"
         y="16.0655">Gitea</tspan></text>
    <text
       xml:space="preserve"
       style="font-style:normal;font-weight:normal;font-size:4.23333px;line-height:1.25;font-family:sans-serif;letter-spacing:0px;word-spacing:0px;fill:#000000;fill-opacity:1;stroke:none;stroke-width:0.264583"
       x="5.4927502"
       y="28.701998"
       id="text29203"><tspan
         sodipodi:role="line"
         style="font-size:4.23333px;fill:#ffffff;fill-opacity:1;stroke-width:0.264583"
         x="5.4927502"
         y="28.701998"
         id="tspan3838">The majority of the software I create is </tspan><tspan
         sodipodi:role="line"
         style="font-size:4.23333px;fill:#ffffff;fill-opacity:1;stroke-width:0.264583"
         x="5.4927502"
         y="33.99366"
         id="tspan23064">available on Github. </tspan><tspan
         sodipodi:role="line"
         style="font-size:4.23333px;fill:#ffffff;fill-opacity:1;stroke-width:0.264583"
         x="5.4927502"
         y="39.285324"
         id="tspan19504" /><tspan
         sodipodi:role="line"
         style="font-size:4.23333px;fill:#ffffff;fill-opacity:1;stroke-width:0.264583"
         x="5.4927502"
         y="44.576984"
         id="tspan6722">However, most of the developement, as well</tspan><tspan
         sodipodi:role="line"
         style="font-size:4.23333px;fill:#ffffff;fill-opacity:1;stroke-width:0.264583"
         x="5.4927502"
         y="49.868645"
         id="tspan3840">as  accepted contributions, are done on my</tspan><tspan
         sodipodi:role="line"
         style="font-size:4.23333px;fill:#ffffff;fill-opacity:1;stroke-width:0.264583"
         x="5.4927502"
         y="55.160309"
         id="tspan18088">self-hosted Gitea instance, at git.ad5001.eu.</tspan><tspan
         sodipodi:role="line"
         style="font-size:4.23333px;fill:#ffffff;fill-opacity:1;stroke-width:0.264583"
         x="5.4927502"
         y="60.451973"
         id="tspan33732" /><tspan
         sodipodi:role="line"
         style="font-size:4.23333px;fill:#ffffff;fill-opacity:1;stroke-width:0.264583"
         x="5.4927502"
         y="65.743637"
         id="tspan15652">CI and CD are done via Drone CI ci.ad5001.eu.</tspan></text>
    <path
       id="rect47994"
       style="fill:#ffffff;fill-opacity:1;fill-rule:evenodd;stroke-width:0;stroke-linejoin:round;paint-order:markers stroke fill"
       d="m 16.404167,71.966667 h 67.46875 v 11.90625 h -67.46875 z" />
    <path
       d="m 24.870833,77.7875 v 2.645834 h -5.55625 V 75.40625 h 3.175 v 0.529167 H 19.84375 v 3.96875 h 4.497916 V 77.7875 Z m 0.79375,-3.175 h -2.907242 l 1.067594,1.058334 -1.845998,1.870604 0.748242,0.748241 1.845998,-1.870604 1.091406,1.103842 z"
       id="path2-2"
       style="stroke-width:0.264583" />
    <g
       aria-label="MY GITEA PROFILE"
       id="text50436"
       style="font-size:5.55625px;line-height:1.25;letter-spacing:0px;word-spacing:0px;stroke-width:0.264583"
       transform="translate(-6.052081,-0.01110933)">
      <path
         d="m 35.156248,79.830345 h 0.433388 v -2.883694 l 1.416844,2.661444 1.416843,-2.661444 v 2.883694 h 0.433388 v -3.817144 h -0.433388 l -1.416843,2.661444 -1.416844,-2.661444 h -0.433388 z"
         style="font-family:Metropolis;-inkscape-font-specification:Metropolis"
         id="path4831" />
      <path
         d="m 41.018082,79.830345 h 0.455613 v -1.55575 l 1.533525,-2.261394 h -0.522288 l -1.239044,1.850232 -1.227931,-1.850232 h -0.538956 l 1.539081,2.261394 z"
         style="font-family:Metropolis;-inkscape-font-specification:Metropolis"
         id="path4833" />
      <path
         d="m 46.918811,78.230145 h 1.094582 v 0.911225 c -0.283369,0.216694 -0.694532,0.3556 -1.050132,0.3556 -0.822325,0 -1.516856,-0.722312 -1.516856,-1.577975 0,-0.850106 0.694531,-1.572419 1.516856,-1.572419 0.416719,0 0.911225,0.188913 1.189038,0.483394 l 0.294481,-0.300037 c -0.3556,-0.361157 -0.955675,-0.583407 -1.483519,-0.583407 -1.055687,0 -1.9558,0.900113 -1.9558,1.972469 0,1.072356 0.900113,1.978025 1.9558,1.978025 0.527844,0 1.127919,-0.227806 1.483519,-0.583406 v -1.494631 h -1.527969 z"
         style="font-family:Metropolis;-inkscape-font-specification:Metropolis"
         id="path4835" />
      <path
         d="m 49.296881,79.830345 h 0.433387 v -3.817144 h -0.433387 z"
         style="font-family:Metropolis;-inkscape-font-specification:Metropolis"
         id="path4837" />
      <path
         d="m 51.702727,79.830345 h 0.433387 v -3.405981 h 1.283494 v -0.411163 h -3.000375 v 0.411163 h 1.283494 z"
         style="font-family:Metropolis;-inkscape-font-specification:Metropolis"
         id="path4839" />
      <path
         d="m 56.847809,76.424364 v -0.411163 h -2.739231 v 3.817144 h 2.739231 v -0.411162 h -2.300288 v -1.327944 h 2.072482 v -0.411163 h -2.072482 v -1.255712 z"
         style="font-family:Metropolis;-inkscape-font-specification:Metropolis"
         id="path4841" />
      <path
         d="m 60.698284,79.830345 h 0.472281 L 59.487022,76.013201 H 59.01474 l -1.683543,3.817144 h 0.472281 l 0.383381,-0.866775 h 2.128044 z m -2.333625,-1.277937 0.889,-2.005807 0.883444,2.005807 z"
         style="font-family:Metropolis;-inkscape-font-specification:Metropolis"
         id="path4843" />
      <path
         d="M 63.398613,79.830345 H 63.832 v -1.372394 h 1.116807 c 0.788987,0 1.405731,-0.505618 1.405731,-1.222375 0,-0.716756 -0.616744,-1.222375 -1.405731,-1.222375 H 63.398613 Z M 63.832,78.046789 v -1.622425 h 1.039019 c 0.6223,0 1.044575,0.300037 1.044575,0.811212 0,0.511175 -0.422275,0.811213 -1.044575,0.811213 z"
         style="font-family:Metropolis;-inkscape-font-specification:Metropolis"
         id="path4845" />
      <path
         d="m 69.932756,77.235576 c 0,-0.716756 -0.616743,-1.222375 -1.405731,-1.222375 h -1.550194 v 3.817144 h 0.433388 v -1.372394 h 1.011237 l 0.966788,1.372394 h 0.494506 l -0.989012,-1.411287 c 0.605631,-0.127794 1.039018,-0.583407 1.039018,-1.183482 z m -2.522537,-0.811212 h 1.039019 c 0.6223,0 1.044575,0.300037 1.044575,0.811212 0,0.511175 -0.422275,0.811213 -1.044575,0.811213 h -1.039019 z"
         style="font-family:Metropolis;-inkscape-font-specification:Metropolis"
         id="path4847" />
      <path
         d="m 72.394173,79.89702 c 1.061244,0 1.950244,-0.905669 1.950244,-1.978025 0,-1.072356 -0.889,-1.972469 -1.950244,-1.972469 -1.055687,0 -1.9558,0.900113 -1.9558,1.972469 0,1.072356 0.900113,1.978025 1.9558,1.978025 z m 0,-0.40005 c -0.822325,0 -1.516856,-0.722312 -1.516856,-1.577975 0,-0.850106 0.694531,-1.572419 1.516856,-1.572419 0.822325,0 1.5113,0.722313 1.5113,1.572419 0,0.855663 -0.688975,1.577975 -1.5113,1.577975 z"
         style="font-family:Metropolis;-inkscape-font-specification:Metropolis"
         id="path4849" />
      <path
         d="m 77.811514,76.424364 v -0.411163 h -2.739231 v 3.817144 h 0.438943 v -1.739106 h 2.072482 v -0.411163 h -2.072482 v -1.255712 z"
         style="font-family:Metropolis;-inkscape-font-specification:Metropolis"
         id="path4851" />
      <path
         d="m 78.456034,79.830345 h 0.433387 v -3.817144 h -0.433387 z"
         style="font-family:Metropolis;-inkscape-font-specification:Metropolis"
         id="path4853" />
      <path
         d="m 80.139566,79.419183 v -3.405982 h -0.433387 v 3.817144 h 2.516981 v -0.411162 z"
         style="font-family:Metropolis;-inkscape-font-specification:Metropolis"
         id="path4855" />
      <path
         d="m 85.590239,76.424364 v -0.411163 h -2.739232 v 3.817144 h 2.739232 v -0.411162 h -2.300288 v -1.327944 h 2.072481 v -0.411163 h -2.072481 v -1.255712 z"
         style="font-family:Metropolis;-inkscape-font-specification:Metropolis"
         id="path4857" />
    </g>
    <path
       d="M 45.593529,13.334074 41.434677,9.1756177 c -0.11985,-0.1198562 -0.27702,-0.1797844 -0.433785,-0.1797844 -0.157163,0 -0.313927,0.059928 -0.433785,0.1797844 l -0.8636,0.8636003 1.095375,1.095375 c 0.254795,-0.08573 0.546497,-0.02818 0.749697,0.174625 0.203597,0.20439 0.261144,0.498475 0.172641,0.754062 l 1.055687,1.055688 c 0.255588,-0.08811 0.550465,-0.03096 0.754459,0.173434 0.284957,0.284956 0.284957,0.746522 0,1.031875 -0.285352,0.285353 -0.747315,0.285353 -1.032669,0 -0.214312,-0.214709 -0.267493,-0.529431 -0.158749,-0.79375 L 41.355302,12.54588 v 2.591197 c 0.06945,0.03453 0.13494,0.08017 0.193277,0.138113 0.284559,0.284559 0.284559,0.746522 0,1.032271 -0.285352,0.284957 -0.747712,0.284957 -1.032271,0 -0.285354,-0.285749 -0.285354,-0.747712 0,-1.032271 0.07024,-0.07064 0.152003,-0.123825 0.238918,-0.159544 v -2.615009 c -0.08691,-0.03532 -0.168672,-0.0885 -0.238918,-0.159147 -0.215901,-0.2159 -0.268289,-0.533003 -0.157162,-0.798116 l -1.079899,-1.079897 -2.851546,2.851547 c -0.11985,0.119856 -0.179784,0.276622 -0.179784,0.433784 0,0.156766 0.05993,0.313929 0.179784,0.433785 l 4.158854,4.158456 c 0.11985,0.119856 0.276622,0.179388 0.433387,0.179388 0.157163,0 0.313928,-0.05953 0.433785,-0.179388 l 4.139802,-4.138612 c 0.11985,-0.120254 0.179388,-0.277416 0.179388,-0.434182 0,-0.157162 -0.05953,-0.313928 -0.179388,-0.433784"
       id="path2-3"
       style="fill:#ffffff;stroke-width:0.396874" />
  </g>
  <metadata
     id="metadata865">
    <rdf:RDF>
      <cc:Work
         rdf:about="">
        <dc:title>Gitea - Ad5001 Github</dc:title>
      </cc:Work>
    </rdf:RDF>
  </metadata>
</svg>
