<svg width="113.4mm" height="92.3mm" viewBox="0 0 113.4 92.3" xmlns="http://www.w3.org/2000/svg"><defs><filter id="b" x="-.013" y="-.016" width="1.025" height="1.032" color-interpolation-filters="sRGB"><feFlood flood-color="#000" result="flood"/><feComposite in="flood" in2="SourceGraphic" operator="in" result="composite1"/><feGaussianBlur in="composite1" result="blur" stdDeviation=".6"/><feOffset result="offset"/><feComposite in="SourceGraphic" in2="offset" result="composite2"/></filter><filter id="c" x="-.009" y="-.04" width="1.018" height="1.081" color-interpolation-filters="sRGB"><feFlood flood-color="#000" result="flood"/><feComposite in="flood" in2="SourceGraphic" operator="in" result="composite1"/><feGaussianBlur in="composite1" result="blur" stdDeviation=".2"/><feOffset result="offset"/><feComposite in="SourceGraphic" in2="offset" result="composite2"/></filter><linearGradient id="a" x1="0" x2="113.24" y1="0" y2="91.546" gradientUnits="userSpaceOnUse"><stop stop-color="#24aaff" stop-opacity=".898" offset="0"/><stop stop-color="#2850c8" offset="1"/></linearGradient></defs><path transform="translate(1.633 1.633) scale(.97183)" fill="url(#a)" fill-rule="evenodd" filter="url(#b)" style="paint-order:markers stroke fill" d="M0 0h113.24v91.546H0z"/><text x="56.801" y="16.066" fill="#fefefe" font-family="sans-serif" font-size="6.35" letter-spacing="0" stroke-width=".265" word-spacing="0" style="line-height:1.25" xml:space="preserve"><tspan x="56.801" y="16.066">Apps</tspan></text><text x="7.101" y="28.702" fill="#fff" font-family="sans-serif" font-size="4.233" letter-spacing="0" stroke-width=".265" word-spacing="0" style="line-height:1.25" xml:space="preserve"><tspan x="7.101" y="28.702">You can find the majority of software I&apos;m currently</tspan><tspan x="7.101" y="33.994">creating over at my Apps website.</tspan><tspan x="7.101" y="44.577">Keep in mind, however, that some of them have</tspan><tspan x="7.101" y="49.869">yet to be released, and as such, do not possess any</tspan><tspan x="7.101" y="55.16">download link on their dedicated page.</tspan></text><path d="M30.427 71.967h52.917v11.906H30.427z" fill="#fff" fill-rule="evenodd" filter="url(#c)" style="paint-order:markers stroke fill"/><path d="M38.894 77.788v2.646h-5.556v-5.027h3.175v.529h-2.646v3.969h4.498v-2.117zm.794-3.175H36.78l1.067 1.058-1.846 1.87.748.75 1.846-1.871 1.092 1.103z"/><text x="42.571" y="79.83" font-family="sans-serif" font-size="5.556" letter-spacing="0" stroke-width=".265" word-spacing="0" style="line-height:1.25" xml:space="preserve"><tspan x="42.571" y="79.83">APPS WEBSITE</tspan></text><path d="M52.123 11.377v6.35h-7.938v-6.35zm.794-2.381h-9.525v9.525h9.525zm-6.35 3.572h-1.588v1.587h1.588zm2.38 0H47.36v1.587h1.588zm2.382 0h-1.587v1.587h1.587zm-4.762 2.38h-1.588v1.588h1.588zm2.38 0H47.36v1.588h1.588z" fill="#f7f7f7"/></svg>