<?xml version="1.0" encoding="UTF-8"?>
<!-- Created with Inkscape (http://www.inkscape.org/) -->
<svg id="svg979" width="381" height="348" version="1.1" viewBox="0 0 100.81 92.075" xmlns="http://www.w3.org/2000/svg" xmlns:cc="http://creativecommons.org/ns#" xmlns:dc="http://purl.org/dc/elements/1.1/" xmlns:rdf="http://www.w3.org/1999/02/22-rdf-syntax-ns#" xmlns:xlink="http://www.w3.org/1999/xlink">
 <title id="title867">Apps - Ad5001 Github</title>
 <defs id="defs976">
  <linearGradient id="linearGradient27871" x1="5e-7" x2="113.24" y1="8.1294e-6" y2="91.546" gradientTransform="matrix(.86449 0 0 .97183 1.6327 1.6327)" gradientUnits="userSpaceOnUse">
   <stop id="stop27865" stop-color="#24aaff" stop-opacity=".89804" offset="0"/>
   <stop id="stop27867" stop-color="#2850c8" offset="1"/>
  </linearGradient>
  <filter id="filter6467" x="-.008438" y="-.040315" width="1.0169" height="1.0806" color-interpolation-filters="sRGB">
   <feFlood id="feFlood6457" flood-color="rgb(0,0,0)" result="flood"/>
   <feComposite id="feComposite6459" in="flood" in2="SourceGraphic" operator="in" result="composite1"/>
   <feGaussianBlur id="feGaussianBlur6461" in="composite1" result="blur" stdDeviation="0.2"/>
   <feOffset id="feOffset6463" dx="0" dy="0" result="offset"/>
   <feComposite id="feComposite6465" in="SourceGraphic" in2="offset" result="composite2"/>
  </filter>
  <filter id="filter1156" x="-.01471" y="-.016186" width="1.0294" height="1.0324" color-interpolation-filters="sRGB">
   <feFlood id="feFlood1146" flood-color="rgb(0,0,0)" result="flood"/>
   <feComposite id="feComposite1148" in="flood" in2="SourceGraphic" operator="in" result="composite1"/>
   <feGaussianBlur id="feGaussianBlur1150" in="composite1" result="blur" stdDeviation="0.6"/>
   <feOffset id="feOffset1152" dx="0" dy="0" result="offset"/>
   <feComposite id="feComposite1154" in="SourceGraphic" in2="offset" result="composite2"/>
  </filter>
 </defs>
 <g id="layer2">
  <rect id="rect26993" x="1.6327" y="1.6327" width="97.896" height="88.967" fill="url(#linearGradient27871)" fill-rule="evenodd" filter="url(#filter1156)" style="paint-order:markers stroke fill"/>
  <text id="text22781" x="49.921585" y="16.0655" fill="#fefefe" font-family="sans-serif" font-size="6.35px" letter-spacing="0px" stroke-width=".26458" word-spacing="0px" style="line-height:1.25" xml:space="preserve"><tspan id="tspan22779" x="49.921585" y="16.0655" fill="#fefefe" font-size="6.35px" stroke-width=".26458">Apps</tspan></text>
  <text id="text29203" x="5.5350833" y="28.701998" fill="#ffffff" font-family="sans-serif" font-size="4.2333px" letter-spacing="0px" stroke-width=".26458" word-spacing="0px" style="line-height:1.25" xml:space="preserve"><tspan id="tspan15652" x="5.5350833" y="28.701998">You can find the majority of software I'm</tspan><tspan id="tspan6289" x="5.5350833" y="33.99366">currently creating over at my Apps website.</tspan><tspan id="tspan7453" x="5.5350833" y="39.285324"/><tspan id="tspan6291" x="5.5350833" y="44.576984">Keep in mind, however, that some of them</tspan><tspan id="tspan6293" x="5.5350833" y="49.868645">have yet to be released, and as such, do not</tspan><tspan id="tspan6295" x="5.5350833" y="55.160309">possess any download link on their dedicated</tspan><tspan id="tspan8231" x="5.5350833" y="60.451973">page.</tspan></text>
  <path id="rect47994" d="m21.911 71.967h56.885v11.906h-56.885z" fill="#fff" fill-rule="evenodd" filter="url(#filter6467)" stroke-width="0" style="paint-order:markers stroke fill"/>
  <path id="path2-2" d="m30.378 77.788v2.6458h-5.5562v-5.0271h3.175v0.52917h-2.6458v3.9688h4.4979v-2.1167zm0.79375-3.175h-2.9072l1.0676 1.0583-1.846 1.8706 0.74824 0.74824 1.846-1.8706 1.0914 1.1038z" stroke-width=".26458"/>
  <g id="text50436" transform="translate(-6.3992)" stroke-width=".26458" aria-label="APPS WEBSITE">
   <path id="path1972" d="m44 79.83h0.47228l-1.6835-3.8171h-0.47228l-1.6835 3.8171h0.47228l0.38338-0.86678h2.128zm-2.3336-1.2779 0.889-2.0058 0.88344 2.0058z"/>
   <path id="path1974" d="m45.089 79.83h0.43339v-1.3724h1.1168c0.78899 0 1.4057-0.50562 1.4057-1.2224 0-0.71676-0.61674-1.2224-1.4057-1.2224h-1.5502zm0.43339-1.7836v-1.6224h1.039c0.6223 0 1.0446 0.30004 1.0446 0.81121s-0.42228 0.81121-1.0446 0.81121z"/>
   <path id="path1976" d="m48.667 79.83h0.43339v-1.3724h1.1168c0.78899 0 1.4057-0.50562 1.4057-1.2224 0-0.71676-0.61674-1.2224-1.4057-1.2224h-1.5502zm0.43339-1.7836v-1.6224h1.039c0.6223 0 1.0446 0.30004 1.0446 0.81121s-0.42228 0.81121-1.0446 0.81121z"/>
   <path id="path1978" d="m53.568 79.891c0.889 0 1.3446-0.49451 1.3446-1.1001 0-0.67231-0.52229-0.93345-1.2502-1.1057-0.65008-0.15558-1.0279-0.29448-1.0279-0.68898 0-0.35004 0.34449-0.66119 0.81677-0.66119 0.40005 0 0.77788 0.18336 1.0946 0.48895l0.2667-0.33893c-0.35004-0.32226-0.77232-0.54451-1.3391-0.54451-0.73342 0-1.2779 0.47784-1.2779 1.089 0 0.66119 0.48339 0.90011 1.2502 1.0779 0.66675 0.15558 1.0279 0.31671 1.0279 0.72231 0 0.34449-0.30004 0.66675-0.889 0.66675-0.5334 0-0.92789-0.22781-1.2502-0.55007l-0.27226 0.33893c0.38338 0.37782 0.87789 0.60563 1.5057 0.60563z"/>
   <path id="path1980" d="m58.335 79.83h0.42783l1.0668-3.2504 1.0612 3.2504h0.42783l1.3057-3.8171h-0.48895l-1.0557 3.0893-1.0112-3.0893h-0.48339l-1.0112 3.0893-1.0557-3.0893h-0.48895z"/>
   <path id="path1982" d="m66.008 76.424v-0.41116h-2.7392v3.8171h2.7392v-0.41116h-2.3003v-1.3279h2.0725v-0.41116h-2.0725v-1.2557z"/>
   <path id="path1984" d="m66.836 79.83h1.8169c0.66119 0 1.1335-0.43339 1.1335-1.0446 0-0.41672-0.25559-0.76121-0.69453-0.98346 0.34449-0.20002 0.54451-0.43339 0.54451-0.83899 0-0.55562-0.43339-0.95012-1.0501-0.95012h-1.7502zm0.43339-2.2003v-1.2224h1.2057c0.42228 0 0.72231 0.25559 0.72231 0.61119s-0.30004 0.61119-0.72231 0.61119zm0 1.8058v-1.4113h1.2724c0.47228 0 0.80566 0.29448 0.80566 0.70564 0 0.41116-0.33338 0.70564-0.80566 0.70564z"/>
   <path id="path1986" d="m71.864 79.891c0.889 0 1.3446-0.49451 1.3446-1.1001 0-0.67231-0.52229-0.93345-1.2502-1.1057-0.65008-0.15558-1.0279-0.29448-1.0279-0.68898 0-0.35004 0.34449-0.66119 0.81677-0.66119 0.40005 0 0.77788 0.18336 1.0946 0.48895l0.2667-0.33893c-0.35004-0.32226-0.77232-0.54451-1.3391-0.54451-0.73342 0-1.2779 0.47784-1.2779 1.089 0 0.66119 0.48339 0.90011 1.2502 1.0779 0.66675 0.15558 1.0279 0.31671 1.0279 0.72231 0 0.34449-0.30004 0.66675-0.889 0.66675-0.5334 0-0.92789-0.22781-1.2502-0.55007l-0.27226 0.33893c0.38338 0.37782 0.87789 0.60563 1.5057 0.60563z"/>
   <path id="path1988" d="m73.948 79.83h0.43339v-3.8171h-0.43339z"/>
   <path id="path1990" d="m76.354 79.83h0.43339v-3.406h1.2835v-0.41116h-3.0004v0.41116h1.2835z"/>
   <path id="path1992" d="m81.499 76.424v-0.41116h-2.7392v3.8171h2.7392v-0.41116h-2.3003v-1.3279h2.0725v-0.41116h-2.0725v-1.2557z"/>
  </g>
  <path id="path2" d="m45.244 11.377v6.35h-7.9375v-6.35zm0.79375-2.3812h-9.525v9.525h9.525zm-6.35 3.5719h-1.5875v1.5875h1.5875zm2.3812 0h-1.5875v1.5875h1.5875zm2.3812 0h-1.5875v1.5875h1.5875zm-4.7625 2.3812h-1.5875v1.5875h1.5875zm2.3812 0h-1.5875v1.5875h1.5875z" fill="#f7f7f7" stroke-width=".39687"/>
 </g>
 <metadata id="metadata865">
  <rdf:RDF>
   <cc:Work rdf:about="">
    <dc:title>Apps - Ad5001 Github</dc:title>
    <dc:date>10/04/2022</dc:date>
    <dc:creator>
     <cc:Agent>
      <dc:title>Ad5001</dc:title>
     </cc:Agent>
    </dc:creator>
    <dc:rights>
     <cc:Agent>
      <dc:title>(c) Ad5001 2022</dc:title>
     </cc:Agent>
    </dc:rights>
   </cc:Work>
  </rdf:RDF>
 </metadata>
</svg>
